# File created by Blade
# Date/Time:  Tue Jan 27 18:55:59 2015
#---------------------------------------------------------
:version 1.10
:name HOM
:units
  mass 1.0
  length 1.000000
  angle deg
:documentation
     Acclaim Skeleton File
:root
   axis xyz
   order TX TY TZ RX RY RZ
   position 0.000000 0.000000 0.000000
   orientation 0 0 0
:bonedata
   begin
      id 1
      name Spine_dum
      direction 0.000000 1.000000 0.000000
      length 5.195262
      axis 0.0 0.0 0.0 xyz
   end
   begin
      id 2
      name LeftUpLeg_dum
      direction 1.000000 0.000000 0.000000
      length 3.351363
      axis 0.0 0.0 0.0 xyz
   end
   begin
      id 3
      name RightUpLeg_dum
      direction -1.000000 0.000000 0.000000
      length 3.351363
      axis 0.0 0.0 0.0 xyz
   end
   begin
      id 4
      name Spine
      direction 0.000000 1.000000 0.000000
      length 0.000000
      axis 0.0 0.0 0.0 xyz
      dof rx ry rz
   end
   begin
      id 5
      name Spine_dum1
      direction 0.000000 1.000000 0.000000
      length 15.653875
      axis 0.0 0.0 0.0 xyz
   end
   begin
      id 6
      name Spine_dum2
      direction 0.000000 1.000000 0.000000
      length 10.329768
      axis 0.0 0.0 0.0 xyz
   end
   begin
      id 7
      name Spine_dum3
      direction 0.000000 1.000000 0.000000
      length 10.329768
      axis 0.0 0.0 0.0 xyz
   end
   begin
      id 8
      name Head
      direction 0.000000 1.000000 0.000000
      length 4.527550
      axis 0.0 0.0 0.0 xyz
      dof rx ry rz
   end
   begin
      id 9
      name LeftShoulder
      direction 1.000000 0.000000 0.000000
      length 6.996006
      axis 0.0 0.0 -90.0 xyz
      dof rx ry rz
   end
   begin
      id 10
      name LeftArm
      direction 1.000000 0.000000 0.000000
      length 10.209302
      axis 0.0 0.0 -90.0 xyz
      dof rx ry rz
   end
   begin
      id 11
      name LeftForeArm
      direction 1.000000 0.000000 0.000000
      length 8.563163
      axis 0.0 0.0 -90.0 xyz
      dof ry rz rx
   end
   begin
      id 12
      name LeftHand
      direction 0.000000 0.000000 0.000000
      length 0.000000
      axis 0.0 0.0 -90.0 xyz
      dof rx ry rz
   end
   begin
      id 13
      name LeftHand_dum1
      direction 0.000000 0.000000 0.000000
      length 0.000000
      axis 0.0 0.0 -90.0 xyz
   end
   begin
      id 14
      name LeftHand_dum2
      direction 1.000000 0.000000 0.000000
      length 3.937000
      axis 0.0 0.0 -90.0 xyz
   end
   begin
      id 15
      name LeftHandThumb1
      direction 0.000000 0.000000 1.000000
      length 3.937000
      axis 0.0 0.0 -90.0 xyz
      dof rx rz ry
   end
   begin
      id 16
      name RightShoulder
      direction -1.000000 0.000000 0.000000
      length 6.996006
      axis 0.0 0.0 90.0 xyz
      dof rx ry rz
   end
   begin
      id 17
      name RightArm
      direction -1.000000 0.000000 0.000000
      length 10.209302
      axis 0.0 0.0 90.0 xyz
      dof rx ry rz
   end
   begin
      id 18
      name RightForeArm
      direction -1.000000 0.000000 0.000000
      length 8.563163
      axis 0.0 0.0 90.0 xyz
      dof ry rz rx
   end
   begin
      id 19
      name RightHand
      direction 0.000000 0.000000 0.000000
      length 0.000000
      axis 0.0 0.0 90.0 xyz
      dof rx ry rz
   end
   begin
      id 20
      name RightHand_dum1
      direction 0.000000 0.000000 0.000000
      length 0.000000
      axis 0.0 0.0 90.0 xyz
   end
   begin
      id 21
      name RightHand_dum2
      direction -1.000000 0.000000 0.000000
      length 3.937000
      axis 0.0 0.0 90.0 xyz
   end
   begin
      id 22
      name RightHandThumb1
      direction 0.000000 0.000000 1.000000
      length 3.937000
      axis 0.0 0.0 90.0 xyz
      dof rx rz ry
   end
   begin
      id 23
      name LeftUpLeg
      direction 0.000000 -1.000000 0.000000
      length 16.346831
      axis 0.0 0.0 0.0 xyz
      dof rx ry rz
   end
   begin
      id 24
      name LeftLeg
      direction 0.000000 -1.000000 0.000000
      length 13.959795
      axis 0.0 0.0 0.0 xyz
      dof rx ry rz
   end
   begin
      id 25
      name LeftFoot
      direction 0.000000 -0.258819 0.965926
      length 5.165550
      axis 15.0 0.0 0.0 xyz
      dof rx ry rz
   end
   begin
      id 26
      name LeftToeBase
      direction 0.000000 0.000000 1.000000
      length 2.952750
      axis 0.0 0.0 0.0 xyz
      dof rx ry rz
   end
   begin
      id 27
      name RightUpLeg
      direction 0.000000 -1.000000 0.000000
      length 16.346831
      axis 0.0 0.0 0.0 xyz
      dof rx ry rz
   end
   begin
      id 28
      name RightLeg
      direction 0.000000 -1.000000 0.000000
      length 13.959795
      axis 0.0 0.0 0.0 xyz
      dof rx ry rz
   end
   begin
      id 29
      name RightFoot
      direction 0.000000 -0.258819 0.965926
      length 5.165550
      axis 15.0 0.0 0.0 xyz
      dof rx ry rz
   end
   begin
      id 30
      name RightToeBase
      direction 0.000000 0.000000 1.000000
      length 2.952750
      axis 0.0 0.0 0.0 xyz
      dof rx ry rz
   end
:hierarchy
   begin
      root Spine_dum LeftUpLeg_dum RightUpLeg_dum
      Spine_dum Spine
      LeftUpLeg_dum LeftUpLeg
      RightUpLeg_dum RightUpLeg
      Spine Spine_dum1 Spine_dum2 Spine_dum3
      Spine_dum1 Head
      Spine_dum2 LeftShoulder
      Spine_dum3 RightShoulder
      LeftShoulder LeftArm
      LeftArm LeftForeArm
      LeftForeArm LeftHand
      LeftHand LeftHand_dum1 LeftHand_dum2
      LeftHand_dum1 LeftHandThumb1
      RightShoulder RightArm
      RightArm RightForeArm
      RightForeArm RightHand
      RightHand RightHand_dum1 RightHand_dum2
      RightHand_dum1 RightHandThumb1
      LeftUpLeg LeftLeg
      LeftLeg LeftFoot
      LeftFoot LeftToeBase
      RightUpLeg RightLeg
      RightLeg RightFoot
      RightFoot RightToeBase
   end

# File created by Blade
# Date/Time:  Tue Jan 27 18:55:50 2015
# Frame Rate: 120.000 fps
#------------------------------------------------------
:FULLY-SPECIFIED
:DEGREES
1
root -5.805702 31.742872 -4.674681 5.397779 4.701406 2.667276
Spine -6.488648 -6.199628 -3.412487
Head 18.212457 10.096757 7.094650
LeftShoulder -16.767272 13.499155 21.273558
LeftArm 19.134571 -33.178924 -35.997768
LeftForeArm -27.475597 -0.000000 3.784334
LeftHand -12.285980 -0.000000 -15.765487
LeftHandThumb1 -26.253704 0.000000 33.147579
RightShoulder -11.138587 4.514506 -30.374336
RightArm 16.278034 9.301733 39.570161
RightForeArm -22.182385 -0.000000 5.732630
RightHand -14.119799 -0.000000 18.614371
RightHandThumb1 -24.326973 -0.000000 -32.862282
LeftUpLeg -0.490791 -2.661933 -1.635220
LeftLeg 1.319599 -0.000000 -0.000000
LeftFoot -21.214588 20.094392 -26.621938
LeftToeBase 8.197295 -0.000000 -0.000000
RightUpLeg 2.710189 -4.744269 -1.785485
RightLeg -3.961276 -0.000000 0.000000
RightFoot -15.421004 -14.578514 7.863803
RightToeBase 4.758153 -0.000000 -0.000000
2
root -5.806698 31.742737 -4.673913 5.400343 4.702580 2.666970
Spine -6.478327 -6.207940 -3.424761
Head 18.220647 10.085505 7.089278
LeftShoulder -16.754180 13.477278 21.292962
LeftArm 19.078746 -33.169483 -35.981228
LeftForeArm -27.476526 -0.000000 3.828423
LeftHand -12.311137 -0.000000 -15.751411
LeftHandThumb1 -26.253704 0.000000 33.147579
RightShoulder -11.135681 4.517920 -30.361936
RightArm 16.266598 9.267462 39.541419
RightForeArm -22.127438 -0.000000 5.729529
RightHand -14.153052 0.000000 18.635494
RightHandThumb1 -24.326973 -0.000000 -32.862282
LeftUpLeg -0.493697 -2.660789 -1.630177
LeftLeg 1.324429 -0.000000 -0.000000
LeftFoot -21.206228 20.088914 -26.583493
LeftToeBase 8.182656 -0.000000 -0.000000
RightUpLeg 2.713912 -4.731618 -1.783327
RightLeg -3.971254 -0.000000 0.000000
RightFoot -15.409478 -14.595147 7.844925
RightToeBase 4.725339 -0.000000 -0.000000
3
root -5.806339 31.742608 -4.673268 5.406784 4.704921 2.663791
Spine -6.474585 -6.214485 -3.427015
Head 18.234330 10.079146 7.090992
LeftShoulder -16.746251 13.463851 21.298168
LeftArm 19.050875 -33.183276 -35.973799
LeftForeArm -27.462983 -0.000000 3.851186
LeftHand -12.301268 -0.000000 -15.750993
LeftHandThumb1 -26.253704 0.000000 33.147579
RightShoulder -11.143488 4.517783 -30.372881
RightArm 16.264000 9.288553 39.557295
RightForeArm -22.156293 -0.000000 5.723698
RightHand -14.140469 0.000000 18.629000
RightHandThumb1 -24.326973 -0.000000 -32.862282
LeftUpLeg -0.498993 -2.651234 -1.627450
LeftLeg 1.324925 -0.000000 -0.000000
LeftFoot -21.200978 20.081069 -26.574268
LeftToeBase 8.167030 -0.000000 -0.000000
RightUpLeg 2.704194 -4.728212 -1.779708
RightLeg -3.961332 -0.000000 0.000000
RightFoot -15.417706 -14.593039 7.869986
RightToeBase 4.730495 -0.000000 -0.000000
4
root -5.806030 31.742609 -4.672209 5.412119 4.704197 2.665234
Spine -6.463844 -6.214469 -3.433919
Head 18.228987 10.048437 7.087084
LeftShoulder -16.758736 13.453889 21.281260
LeftArm 19.054892 -33.179826 -35.949851
LeftForeArm -27.462636 -0.000000 3.858172
LeftHand -12.296612 -0.000000 -15.746949
LeftHandThumb1 -26.253704 0.000000 33.147579
RightShoulder -11.169162 4.505607 -30.376965
RightArm 16.286666 9.296142 39.565882
RightForeArm -22.157755 -0.000000 5.715090
RightHand -14.157324 -0.000000 18.631181
RightHandThumb1 -24.326973 -0.000000 -32.862282
LeftUpLeg -0.501534 -2.655443 -1.630073
LeftLeg 1.320986 -0.000000 -0.000000
LeftFoot -21.213827 20.083316 -26.596376
LeftToeBase 8.171332 -0.000000 -0.000000
RightUpLeg 2.701633 -4.732602 -1.782071
RightLeg -3.962279 -0.000000 0.000000
RightFoot -15.417191 -14.584134 7.881509
RightToeBase 4.726903 -0.000000 -0.000000
5
root -5.805693 31.742152 -4.671266 5.414991 4.706357 2.665088
Spine -6.459476 -6.233415 -3.445850
Head 18.248437 10.078424 7.092619
LeftShoulder -16.767165 13.473955 21.291453
LeftArm 19.051923 -33.187072 -35.957185
LeftForeArm -27.474838 -0.000000 3.878955
LeftHand -12.310158 -0.000000 -15.750048
LeftHandThumb1 -26.253704 0.000000 33.147579
RightShoulder -11.157959 4.484323 -30.362525
RightArm 16.297794 9.313586 39.558260
RightForeArm -22.098902 0.000000 5.710437
RightHand -14.149642 -0.000000 18.814363
RightHandThumb1 -24.326973 -0.000000 -32.862282
LeftUpLeg -0.503634 -2.663235 -1.629848
LeftLeg 1.322082 -0.000000 -0.000000
LeftFoot -21.222209 20.075679 -26.604384
LeftToeBase 8.231668 -0.000000 -0.000000
RightUpLeg 2.702826 -4.732711 -1.780912
RightLeg -3.966275 -0.000000 0.000000
RightFoot -15.419307 -14.597662 7.867845
RightToeBase 4.694346 -0.000000 -0.000000
6
root -5.805894 31.742261 -4.671490 5.435662 4.704599 2.660839
Spine -6.469526 -6.230963 -3.452476
Head 18.251505 10.075575 7.110164
LeftShoulder -16.752948 13.441283 21.315753
LeftArm 19.006394 -33.161906 -35.944214
LeftForeArm -27.485293 0.000000 3.899490
LeftHand -12.265778 0.000000 -15.766629
LeftHandThumb1 -26.253704 0.000000 33.147579
RightShoulder -11.169839 4.487596 -30.369091
RightArm 16.273029 9.362113 39.586721
RightForeArm -22.266113 -0.000000 5.724084
RightHand -14.038464 -0.000000 18.601977
RightHandThumb1 -24.326973 -0.000000 -32.862282
LeftUpLeg -0.527651 -2.666981 -1.623671
LeftLeg 1.330241 -0.000000 -0.000000
LeftFoot -21.225673 20.073172 -26.611034
LeftToeBase 8.207807 -0.000000 -0.000000
RightUpLeg 2.679212 -4.736081 -1.775114
RightLeg -3.961649 -0.000000 0.000000
RightFoot -15.420050 -14.591371 7.860320
RightToeBase 4.666341 -0.000000 -0.000000
7
root -5.805598 31.741849 -4.670258 5.434332 4.694496 2.665108
Spine -6.454985 -6.229867 -3.470821
Head 18.256062 10.076988 7.118982
LeftShoulder -16.763830 13.449370 21.314742
LeftArm 19.012451 -33.148005 -35.931678
LeftForeArm -27.528435 -0.000000 3.896710
LeftHand -12.251210 -0.000000 -15.744928
LeftHandThumb1 -26.253704 0.000000 33.147579
RightShoulder -11.182522 4.497852 -30.364802
RightArm 16.273122 9.341402 39.582028
RightForeArm -22.261257 -0.000000 5.723259
RightHand -14.028348 -0.000000 18.582819
RightHandThumb1 -24.326973 -0.000000 -32.862282
LeftUpLeg -0.519875 -2.645129 -1.630425
LeftLeg 1.326419 -0.000000 -0.000000
LeftFoot -21.212065 20.091034 -26.565755
LeftToeBase 8.187412 -0.000000 -0.000000
RightUpLeg 2.683264 -4.722445 -1.781523
RightLeg -3.965769 -0.000000 0.000000
RightFoot -15.423984 -14.583972 7.869088
RightToeBase 4.692754 -0.000000 -0.000000
8
root -5.806622 31.741624 -4.670138 5.443379 4.687475 2.659950
Spine -6.451165 -6.224096 -3.478874
Head 18.258521 10.069117 7.129469
LeftShoulder -16.762093 13.440585 21.332128
LeftArm 19.010576 -33.073383 -35.923588
LeftForeArm -27.772951 -0.000000 3.898255
LeftHand -12.261663 -0.000000 -15.503789
LeftHandThumb1 -26.253704 0.000000 33.147579
RightShoulder -11.198632 4.501941 -30.365177
RightArm 16.268061 9.377835 39.600956
RightForeArm -22.301925 -0.000000 5.734671
RightHand -14.011451 -0.000000 18.604884
RightHandThumb1 -24.326973 -0.000000 -32.862282
LeftUpLeg -0.529796 -2.637928 -1.622516
LeftLeg 1.327683 -0.000000 -0.000000
LeftFoot -21.213439 20.081077 -26.566821
LeftToeBase 8.190371 -0.000000 -0.000000
RightUpLeg 2.671535 -4.711109 -1.772649
RightLeg -3.964010 -0.000000 0.000000
RightFoot -15.422280 -14.603350 7.861185
RightToeBase 4.691606 -0.000000 -0.000000
9
root -5.808978 31.741717 -4.670943 5.461014 4.673035 2.649163
Spine -6.457353 -6.224314 -3.481505
Head 18.265876 10.077458 7.132304
LeftShoulder -16.761794 13.436132 21.326030
LeftArm 18.986370 -33.083547 -35.889435
LeftForeArm -27.779738 0.000000 3.903550
LeftHand -12.231311 -0.000000 -15.519612
LeftHandThumb1 -26.253704 0.000000 33.147579
RightShoulder -11.190893 4.561848 -30.340826
RightArm 16.227347 9.274396 39.534118
RightForeArm -22.171820 0.000000 5.758445
RightHand -14.134754 -0.000000 18.660107
RightHandThumb1 -24.326973 -0.000000 -32.862282
LeftUpLeg -0.549282 -2.627356 -1.605567
LeftLeg 1.331216 -0.000000 -0.000000
LeftFoot -21.223283 20.066891 -26.579839
LeftToeBase 8.209989 -0.000000 -0.000000
RightUpLeg 2.648048 -4.696371 -1.756502
RightLeg -3.960507 -0.000000 0.000000
RightFoot -15.424280 -14.596587 7.887269
RightToeBase 4.710131 -0.000000 -0.000000
10
root -5.808232 31.741517 -4.670677 5.470979 4.663848 2.648794
Spine -6.461562 -6.227822 -3.489451
Head 18.285317 10.088847 7.120102
LeftShoulder -16.755805 13.436250 21.329949
LeftArm 18.966662 -33.112842 -35.881296
LeftForeArm -27.767796 0.000000 3.905734
LeftHand -12.226447 -0.000000 -15.536676
LeftHandThumb1 -26.253704 0.000000 33.147579
RightShoulder -11.186560 4.559403 -30.334876
RightArm 16.234558 9.292071 39.534052
RightForeArm -22.176552 -0.000000 5.747590
RightHand -14.143869 -0.000000 18.663478
RightHandThumb1 -24.326973 -0.000000 -32.862282
LeftUpLeg -0.558258 -2.636633 -1.608540
LeftLeg 1.331988 -0.000000 -0.000000
LeftFoot -21.239464 20.067881 -26.610092
LeftToeBase 8.179758 -0.000000 -0.000000
RightUpLeg 2.638618 -4.696179 -1.757854
RightLeg -3.964648 -0.000000 0.000000
RightFoot -15.416343 -14.599222 7.870777
RightToeBase 4.657503 -0.000000 -0.000000
11
root -5.808502 31.741249 -4.669631 5.478134 4.642400 2.648101
Spine -6.458799 -6.218051 -3.498816
Head 18.293832 10.104465 7.115064
LeftShoulder -16.742663 13.417664 21.360744
LeftArm 18.918738 -33.080762 -35.868324
LeftForeArm -27.763416 -0.000000 3.897208
LeftHand -12.195864 -0.000000 -15.551677
LeftHandThumb1 -26.253704 0.000000 33.147579
RightShoulder -11.200375 4.556858 -30.350986
RightArm 16.232484 9.337878 39.578225
RightForeArm -22.275565 0.000000 5.757809
RightHand -14.068724 -0.000000 18.633133
RightHandThumb1 -24.326973 -0.000000 -32.862282
LeftUpLeg -0.558465 -2.614441 -1.608836
LeftLeg 1.325877 -0.000000 -0.000000
LeftFoot -21.233708 20.085105 -26.562662
LeftToeBase 8.225773 -0.000000 -0.000000
RightUpLeg 2.630018 -4.681569 -1.757224
RightLeg -3.964952 -0.000000 0.000000
RightFoot -15.410718 -14.600188 7.847201
RightToeBase 4.716682 -0.000000 -0.000000
